<?xml version="1.0" encoding="UTF-8"?>
<!DOCTYPE svg PUBLIC "-//W3C//DTD SVG 1.1//EN" "http://www.w3.org/Graphics/SVG/1.1/DTD/svg11.dtd">
<svg xmlns="http://www.w3.org/2000/svg" version="1.1" width="512px" height="512px" style="shape-rendering:geometricPrecision; text-rendering:geometricPrecision; image-rendering:optimizeQuality; fill-rule:evenodd; clip-rule:evenodd" xmlns:xlink="http://www.w3.org/1999/xlink">
<g><path style="opacity:0.98" fill="#ffffff" d="M 236.5,14.5 C 291.582,13.9643 336.749,34.631 372,76.5C 408.651,127.093 415.984,181.76 394,240.5C 370.709,292.448 331.209,324.614 275.5,337C 265.263,339.013 254.93,339.847 244.5,339.5C 244.5,346.167 244.5,352.833 244.5,359.5C 251.167,359.5 257.833,359.5 264.5,359.5C 264.5,369.167 264.5,378.833 264.5,388.5C 257.833,388.5 251.167,388.5 244.5,388.5C 244.5,424.167 244.5,459.833 244.5,495.5C 219.167,495.5 193.833,495.5 168.5,495.5C 168.5,459.833 168.5,424.167 168.5,388.5C 161.833,388.5 155.167,388.5 148.5,388.5C 148.5,378.833 148.5,369.167 148.5,359.5C 155.167,359.5 161.833,359.5 168.5,359.5C 168.5,329.167 168.5,298.833 168.5,268.5C 207.876,280.216 243.876,273.716 276.5,249C 316.719,210.122 325.219,165.289 302,114.5C 280.861,78.921 249.528,59.921 208,57.5C 170.213,62.6311 132.546,68.6311 95,75.5C 122.995,58.0662 152.162,41.8995 182.5,27C 200.046,20.2776 218.046,16.111 236.5,14.5 Z M 169.5,360.5 C 194.167,360.5 218.833,360.5 243.5,360.5C 243.5,369.5 243.5,378.5 243.5,387.5C 218.833,387.5 194.167,387.5 169.5,387.5C 169.5,378.5 169.5,369.5 169.5,360.5 Z"/></g>
</svg>
